<svg width="24" height="24" viewBox="0 0 24 24" fill="none" xmlns="http://www.w3.org/2000/svg">
<path d="M20.9332 8.87109C21.0824 9.1875 20.9705 9.50391 20.7094 9.75L19.1055 11.1211C19.1428 11.4023 19.1801 11.7188 19.1801 12C19.1801 12.3164 19.1428 12.6328 19.1055 12.9141L20.7094 14.2852C20.9705 14.5312 21.0824 14.8477 20.9332 15.1641C20.784 15.5859 20.5975 15.9727 20.3737 16.3594L20.1872 16.6406C19.9261 17.0273 19.665 17.4141 19.3666 17.7656C19.1428 18.0117 18.7698 18.082 18.4341 17.9766L16.3827 17.3789C15.8605 17.7305 15.301 18.0117 14.7415 18.2578L14.2566 20.2617C14.182 20.5781 13.9209 20.8242 13.5852 20.8945C13.063 20.9648 12.5408 21 11.9813 21C11.4592 21 10.937 20.9648 10.4148 20.8945C10.0791 20.8242 9.81799 20.5781 9.74339 20.2617L9.2585 18.2578C8.69902 18.0117 8.13953 17.7305 7.61734 17.3789L5.56588 17.9766C5.23018 18.082 4.85719 18.0117 4.63339 17.7656C4.335 17.4141 4.07391 17.0273 3.81281 16.6406L3.62631 16.3594C3.40252 15.9727 3.21602 15.5859 3.06683 15.1641C2.91763 14.8477 3.02953 14.5312 3.29062 14.2852L4.89449 12.9141C4.85719 12.6328 4.85719 12.3164 4.85719 12C4.85719 11.7188 4.85719 11.4023 4.89449 11.1211L3.29062 9.75C3.02953 9.50391 2.91763 9.1875 3.06683 8.87109C3.21602 8.44922 3.40252 8.0625 3.62631 7.67578L3.81281 7.39453C4.07391 7.00781 4.335 6.62109 4.63339 6.26953C4.85719 6.02344 5.23018 5.95312 5.56588 6.05859L7.61734 6.65625C8.13953 6.30469 8.69902 5.98828 9.2585 5.77734L9.74339 3.77344C9.81799 3.45703 10.0791 3.21094 10.4148 3.14062C10.937 3.07031 11.4592 3 12.0187 3C12.5408 3 13.063 3.07031 13.5852 3.14062C13.9209 3.21094 14.182 3.45703 14.2566 3.77344L14.7415 5.77734C15.301 5.98828 15.8605 6.30469 16.3827 6.65625L18.4341 6.05859C18.7698 5.95312 19.1428 6.02344 19.3666 6.26953C19.665 6.62109 19.9261 7.00781 20.1872 7.39453L20.3737 7.67578C20.5975 8.0625 20.784 8.44922 20.9332 8.87109ZM12.0187 14.8125C13.6598 14.8125 15.0026 13.582 15.0026 12C15.0026 10.4531 13.6598 9.1875 12.0187 9.1875C10.3402 9.1875 9.03471 10.4531 9.03471 12C9.03471 13.582 10.3402 14.8125 12.0187 14.8125Z"/>
</svg>
