<svg width="24" height="24" viewBox="0 0 24 24" fill="none" xmlns="http://www.w3.org/2000/svg">
<path d="M20.9953 12C20.9953 12.5625 20.5258 13 19.9938 13H18.9923L19.0236 18C19.0236 18.0938 19.0236 18.1875 19.0236 18.25V18.75C19.0236 19.4688 18.4603 20 17.7718 20H17.271C17.2084 20 17.1771 20 17.1459 20C17.1146 20 17.052 20 17.0207 20H15.2681C14.5483 20 14.0162 19.4688 14.0162 18.75V16C14.0162 15.4688 13.5468 15 13.0148 15H11.0118C10.4485 15 10.0103 15.4688 10.0103 16V18.75C10.0103 19.4688 9.447 20 8.75849 20H7.0059C6.94331 20 6.91202 20 6.84942 20C6.81813 20 6.78683 20 6.75554 20H6.2548C5.53499 20 5.00295 19.4688 5.00295 18.75V15.25C5.00295 15.25 5.00295 15.2188 5.00295 15.1875V13H4.00148C3.43815 13 3 12.5625 3 12C3 11.7188 3.09389 11.4688 3.31296 11.25L11.3248 4.28125C11.5438 4.0625 11.7942 4 12.0133 4C12.2324 4 12.4827 4.09375 12.6705 4.25L20.651 11.25C20.9014 11.4688 21.0266 11.7188 20.9953 12Z" fill="black"/>
</svg>
