<svg width="185" height="44" viewBox="0 0 185 44" fill="none" xmlns="http://www.w3.org/2000/svg">
<path d="M154.884 10.9629C155.964 10.9629 156.962 11.8774 156.962 12.9997V30.5C156.962 31.6639 155.964 32.5784 154.884 32.5784C153.678 32.5784 152.764 31.6639 152.764 30.5V12.9997C152.764 11.8774 153.678 10.9629 154.884 10.9629ZM152.764 7.0139V5.68371C152.764 4.5198 153.678 3.6053 154.884 3.6053C155.964 3.6053 156.962 4.5198 156.962 5.68371V7.0139C156.962 8.13624 155.964 9.09232 154.884 9.09232C153.678 9.09232 152.764 8.13624 152.764 7.0139Z" fill="white"/>
<path d="M127.559 12.9998V36.1949C127.559 40.0607 124.441 43.1368 120.617 43.1368H106.276C105.071 43.1368 104.156 42.2223 104.156 41.0999C104.156 39.8945 105.071 38.98 106.276 38.98H120.617C122.114 38.98 123.361 37.7329 123.361 36.1949V31.9965C122.571 32.329 121.532 32.5784 120.617 32.5784H109.311C105.445 32.5784 102.369 29.4608 102.369 25.6365V12.9998C102.369 11.8358 103.242 10.9213 104.447 10.9213C105.528 10.9213 106.526 11.8358 106.526 12.9998V25.6365C106.526 27.133 107.773 28.4216 109.311 28.4216H120.617C122.114 28.4216 123.361 27.133 123.361 25.6365V12.9998C123.361 11.8358 124.275 10.9213 125.481 10.9213C126.561 10.9213 127.559 11.8358 127.559 12.9998Z" fill="white"/>
<path d="M92.3912 2.66219V30.4792C92.3912 31.6386 93.331 32.5784 94.4904 32.5784C95.6497 32.5784 96.5896 31.6386 96.5896 30.4792V2.66219C96.5896 1.49827 95.5919 0.583771 94.5111 0.583771C93.3057 0.583771 92.3912 1.49827 92.3912 2.66219Z" fill="white"/>
<path d="M63.8416 10.963H80.178C83.9607 10.963 86.9952 13.9975 86.9952 17.7802V25.7613C86.9952 29.544 83.9607 32.5785 80.2195 32.5785H68.4141C64.6314 32.5785 61.5969 29.5025 61.5969 25.7613C61.5969 21.937 64.673 18.9025 68.4557 18.9025H82.9215V17.7802C82.9215 16.2422 81.6744 15.0367 80.178 15.0367H63.8416C62.6777 15.0367 61.7632 14.1222 61.7632 12.9998C61.7632 11.8775 62.6777 10.963 63.8416 10.963ZM65.7122 25.7613C65.7122 27.2162 66.9177 28.4633 68.4141 28.4633H80.2195C81.716 28.4633 82.9215 27.2162 82.9215 25.7613V23.0178H68.4557C66.9177 23.0178 65.7122 24.2649 65.7122 25.7613Z" fill="white"/>
<path d="M33.9519 10.9631H48.7087C52.5745 10.9631 55.6506 14.0807 55.6506 17.905V30.5002C55.6506 31.6641 54.7361 32.5786 53.5722 32.5786C52.4498 32.5786 51.5353 31.6641 51.5353 30.5002V17.905C51.5353 16.367 50.2883 15.1199 48.7087 15.1199H36.0719V30.5002C36.0719 31.6641 35.0743 32.5786 33.9935 32.5786C32.8296 32.5786 31.9151 31.6641 31.9151 30.5002V13.0415C31.9151 11.8776 32.788 11.0047 33.9519 10.9631Z" fill="white"/>
<path d="M2.65094 10.963H18.9873C22.77 10.963 25.8045 13.9975 25.8045 17.7802V25.7613C25.8045 29.544 22.77 32.5785 19.0289 32.5785H7.22345C3.44074 32.5785 0.40625 29.5025 0.40625 25.7613C0.40625 21.937 3.48231 18.9025 7.26502 18.9025H21.7308V17.7802C21.7308 16.2422 20.4837 15.0367 18.9873 15.0367H2.65094C1.48703 15.0367 0.572523 14.1222 0.572523 12.9998C0.572523 11.8775 1.48703 10.963 2.65094 10.963ZM4.52151 25.7613C4.52151 27.2162 5.72699 28.4633 7.22345 28.4633H19.0289C20.5253 28.4633 21.7308 27.2162 21.7308 25.7613V23.0178H7.26502C5.727 23.0178 4.52151 24.2649 4.52151 25.7613Z" fill="white"/>
<path fill-rule="evenodd" clip-rule="evenodd" d="M184.066 32.2552C184.768 31.5524 184.768 30.4129 184.066 29.7101L178.581 24.2258C178.019 23.6636 177.107 23.6636 176.545 24.2258L176.036 24.7349C175.474 25.2971 175.474 26.2087 176.036 26.771L181.52 32.2552C182.223 32.9581 183.363 32.9581 184.066 32.2552ZM176.545 19.8841C177.107 20.4463 178.019 20.4463 178.581 19.8841L184.066 14.3999C184.768 13.697 184.768 12.5575 184.066 11.8547C183.363 11.1519 182.223 11.1519 181.52 11.8547L176.036 17.3389C175.474 17.9012 175.474 18.8128 176.036 19.3751L176.545 19.8841Z" fill="white"/>
<path fill-rule="evenodd" clip-rule="evenodd" d="M162.581 32.2552C161.878 31.5524 161.878 30.4129 162.581 29.7101L169.67 22.6206C169.983 22.3082 169.983 21.8017 169.67 21.4894L162.581 14.3999C161.878 13.697 161.878 12.5575 162.581 11.8547C163.284 11.1519 164.423 11.1519 165.126 11.8547L173.488 20.2168C174.503 21.232 174.503 22.8779 173.488 23.8931L165.126 32.2552C164.423 32.9581 163.284 32.9581 162.581 32.2552Z" fill="#3CB043"/>
<path d="M139.024 14.5149C139.024 18.4973 139.024 22.2695 139.024 26.0509C139.021 26.4983 139.152 26.9322 139.391 27.2764C139.631 27.6206 139.964 27.853 140.333 27.9325C141.375 28.1892 142.429 28.3722 143.489 28.4806C144.002 28.5536 144.53 28.4806 145.021 28.5354C145.221 28.5406 145.419 28.5978 145.599 28.7032C145.78 28.8085 145.939 28.9593 146.066 29.1452C146.192 29.3311 146.284 29.5477 146.333 29.7799C146.383 30.0121 146.39 30.2544 146.353 30.49C146.353 31.6135 145.84 32.3807 144.898 32.3168C142.951 32.2209 141.016 31.9152 139.116 31.4034C136.42 30.5448 135.286 28.4897 135.286 25.1924C135.286 22.1417 135.286 19.0818 135.286 16.0585C135.286 14.4327 135.348 14.5514 134.069 14.5332C132.935 14.5332 132.46 14.0125 132.391 12.8799C132.315 11.519 132.828 10.8522 133.984 10.8066C134.375 10.8066 134.75 10.8066 135.286 10.8066C135.286 9.29947 135.286 7.89286 135.286 6.47711C135.286 4.78735 135.914 4.11145 137.331 4.19365C137.553 4.16526 137.777 4.19485 137.988 4.28035C138.199 4.36585 138.392 4.5052 138.553 4.6887C138.714 4.87219 138.839 5.0954 138.921 5.34275C139.002 5.59011 139.037 5.85567 139.024 6.12089C139.024 7.60971 139.024 9.09853 139.024 10.7609H145.005C146.185 10.7609 146.721 11.3546 146.736 12.5877C146.751 13.8207 146.238 14.4875 144.998 14.5058C143.374 14.5058 141.75 14.5058 140.134 14.5058L139.024 14.5149Z" fill="white"/>
</svg>
