<svg width="24" height="22" viewBox="0 0 24 22" fill="none" xmlns="http://www.w3.org/2000/svg">
<path fill-rule="evenodd" clip-rule="evenodd" d="M22.7424 21.3368C23.4452 20.634 23.4452 19.4945 22.7424 18.7917L17.2582 13.3074C16.6959 12.7452 15.7843 12.7452 15.2221 13.3074L14.713 13.8165C14.1508 14.3787 14.1508 15.2903 14.713 15.8526L20.1973 21.3368C20.9001 22.0397 22.0396 22.0397 22.7424 21.3368ZM15.2221 8.9657C15.7843 9.52796 16.6959 9.52796 17.2582 8.9657L22.7424 3.48146C23.4452 2.77863 23.4452 1.63913 22.7424 0.936299C22.0396 0.233473 20.9001 0.233473 20.1973 0.936299L14.713 6.42053C14.1508 6.9828 14.1508 7.8944 14.713 8.45666L15.2221 8.9657Z" fill="white"/>
<path fill-rule="evenodd" clip-rule="evenodd" d="M1.25759 21.3368C0.554762 20.634 0.554762 19.4945 1.25759 18.7917L8.3471 11.7022C8.65947 11.3898 8.65947 10.8833 8.3471 10.571L1.25759 3.48146C0.554763 2.77863 0.554762 1.63913 1.25759 0.936299C1.96041 0.233473 3.09993 0.233473 3.80276 0.936299L12.1648 9.2984C13.18 10.3136 13.18 11.9595 12.1648 12.9747L3.80276 21.3368C3.09993 22.0397 1.96042 22.0397 1.25759 21.3368Z" fill="#3CB043"/>
</svg>
