<svg width="24" height="24" viewBox="0 0 24 24" fill="none" xmlns="http://www.w3.org/2000/svg">
<path d="M10.7143 8.78571C10.7143 9.87054 9.83036 10.7143 8.78571 10.7143H4.92857C3.84375 10.7143 3 9.87054 3 8.78571V4.92857C3 3.88393 3.84375 3 4.92857 3H8.78571C9.83036 3 10.7143 3.88393 10.7143 4.92857V8.78571ZM10.7143 19.0714C10.7143 20.1562 9.83036 21 8.78571 21H4.92857C3.84375 21 3 20.1562 3 19.0714V15.2143C3 14.1696 3.84375 13.2857 4.92857 13.2857H8.78571C9.83036 13.2857 10.7143 14.1696 10.7143 15.2143V19.0714ZM13.2857 4.92857C13.2857 3.88393 14.1295 3 15.2143 3H19.0714C20.1161 3 21 3.88393 21 4.92857V8.78571C21 9.87054 20.1161 10.7143 19.0714 10.7143H15.2143C14.1295 10.7143 13.2857 9.87054 13.2857 8.78571V4.92857ZM21 19.0714C21 20.1562 20.1161 21 19.0714 21H15.2143C14.1295 21 13.2857 20.1562 13.2857 19.0714V15.2143C13.2857 14.1696 14.1295 13.2857 15.2143 13.2857H19.0714C20.1161 13.2857 21 14.1696 21 15.2143V19.0714Z"/>
</svg>
