<svg xmlns="http://www.w3.org/2000/svg" viewBox="0 0 24 24">
  <path d="M5.25 19.3125H13.125C13.4344 19.3125 13.6875 19.0594 13.6875 18.75V16.5H15.375V18.75C15.375 19.991 14.366 21 13.125 21H5.25C4.00898 21 3 19.991 3 18.75V10.875C3 9.63398 4.00898 8.625 5.25 8.625H7.5V10.3125H5.25C4.94062 10.3125 4.6875 10.5656 4.6875 10.875V18.75C4.6875 19.0594 4.94062 19.3125 5.25 19.3125ZM10.875 13.6875H18.75C19.0594 13.6875 19.3125 13.4344 19.3125 13.125V5.25C19.3125 4.94062 19.0594 4.6875 18.75 4.6875H10.875C10.5656 4.6875 10.3125 4.94062 10.3125 5.25V13.125C10.3125 13.4344 10.5656 13.6875 10.875 13.6875ZM8.625 13.125V5.25C8.625 4.00898 9.63398 3 10.875 3H18.75C19.991 3 21 4.00898 21 5.25V13.125C21 14.366 19.991 15.375 18.75 15.375H10.875C9.63398 15.375 8.625 14.366 8.625 13.125Z"/></svg>
