<svg width="24" height="24" viewBox="0 0 24 24" fill="none" xmlns="http://www.w3.org/2000/svg">
  <path d="M20.9866 4.29401C21.0534 3.86858 20.867 3.43963 20.5119 3.19703C20.1568 2.95443 19.6927 2.93333 19.3165 3.1478L3.56498 12.1487C3.19229 12.3596 2.9743 12.764 3.00243 13.1929C3.03056 13.6219 3.29777 13.9981 3.69156 14.1633L8.62445 16.2166V19.4865C8.62445 20.3233 9.30303 20.9983 10.1363 20.9983C10.5969 20.9983 11.0294 20.7909 11.3177 20.4323L13.1741 18.1117H13.1776L17.1929 19.7853C17.5128 19.9189 17.875 19.8979 18.1773 19.7291C18.4797 19.5603 18.6871 19.2615 18.7399 18.9204L20.9901 4.29401H20.9866ZM12.0912 17.6617L10.4387 19.7291C10.3649 19.8205 10.2523 19.8732 10.1363 19.8732C9.92184 19.8732 9.74956 19.701 9.74956 19.4865V16.6843L12.0912 17.6617ZM13.6066 17.0745L10.2102 15.6576L19.6681 5.47537L17.6253 18.7481L13.6101 17.0745H13.6066ZM18.8383 4.71241L9.10262 15.197L4.12402 13.1226L18.8383 4.71241Z"/>
</svg>
