<svg width="16" height="14" viewBox="0 0 16 14" fill="none" xmlns="http://www.w3.org/2000/svg">
<path d="M2.60938 0.75C2.99023 0.75 3.3125 1.08053 3.3125 1.47115V2.91346C3.3125 3.33413 2.99023 3.63462 2.60938 3.63462V6.27885H4.25C4.25 5.88822 4.54297 5.55769 4.95312 5.55769H6.35938C6.74023 5.55769 7.0625 5.88822 7.0625 6.27885V7.72115C7.0625 8.14183 6.74023 8.44231 6.35938 8.44231H4.95312C4.54297 8.44231 4.25 8.14183 4.25 7.72115H2.60938V10.8462C2.60938 10.9964 2.69727 11.0865 2.84375 11.0865H4.25C4.25 10.6959 4.54297 10.3654 4.95312 10.3654H6.35938C6.74023 10.3654 7.0625 10.6959 7.0625 11.0865V12.5288C7.0625 12.9495 6.74023 13.25 6.35938 13.25H4.95312C4.54297 13.25 4.25 12.9495 4.25 12.5288H2.84375C1.93555 12.5288 1.20312 11.7776 1.20312 10.8462V3.63462C0.792969 3.63462 0.5 3.33413 0.5 2.91346V1.47115C0.5 1.08053 0.792969 0.75 1.20312 0.75H2.60938ZM5.1875 2.19231C5.1875 1.80168 5.48047 1.47115 5.89062 1.47115H14.7969C15.1777 1.47115 15.5 1.80168 15.5 2.19231C15.5 2.61298 15.1777 2.91346 14.7969 2.91346H5.89062C5.48047 2.91346 5.1875 2.61298 5.1875 2.19231ZM8.9375 7C8.9375 6.60938 9.23047 6.27885 9.64062 6.27885H14.7969C15.1777 6.27885 15.5 6.60938 15.5 7C15.5 7.42067 15.1777 7.72115 14.7969 7.72115H9.64062C9.23047 7.72115 8.9375 7.42067 8.9375 7ZM8.9375 11.8077C8.9375 11.4171 9.23047 11.0865 9.64062 11.0865H14.7969C15.1777 11.0865 15.5 11.4171 15.5 11.8077C15.5 12.2284 15.1777 12.5288 14.7969 12.5288H9.64062C9.23047 12.5288 8.9375 12.2284 8.9375 11.8077Z" fill="#E6E6E6"/>
</svg>
