<svg width="19" height="18" viewBox="0 0 19 18" fill="none" xmlns="http://www.w3.org/2000/svg">
<path d="M8.06211 0.623151C8.18867 1.07752 7.93203 1.55335 7.48203 1.68573C4.42344 2.57657 2.1875 5.44588 2.1875 8.84111C2.1875 12.9519 5.46055 16.2827 9.5 16.2827C13.5395 16.2827 16.8125 12.9519 16.8125 8.84111C16.8125 5.44588 14.5766 2.57657 11.518 1.68573C11.0715 1.55693 10.8113 1.0811 10.9379 0.623151C11.0645 0.165207 11.532 -0.0959648 11.982 0.0328321C15.7438 1.13118 18.5 4.65879 18.5 8.84111C18.5 13.9 14.4711 18 9.5 18C4.52891 18 0.5 13.9 0.5 8.84111C0.5 4.65879 3.25625 1.13118 7.01797 0.0364097C7.46445 -0.0923872 7.93203 0.168784 8.06211 0.626729V0.623151Z" fill="#E6E6E6"/>
</svg>
