<svg width="24" height="24" viewBox="0 0 24 24" fill="none" xmlns="http://www.w3.org/2000/svg">
<path d="M15.1846 8.30403L20.0552 9.04168C20.4639 9.11193 20.8046 9.39294 20.9408 9.81445C21.077 10.2008 20.9749 10.6575 20.6683 10.9385L17.1261 14.5565L17.9776 19.6849C18.0457 20.1064 17.8754 20.5279 17.5348 20.7738C17.1942 21.0548 16.7514 21.0548 16.3767 20.8791L12.017 18.4555L7.62327 20.8791C7.28267 21.0548 6.80583 21.0548 6.49928 20.7738C6.15868 20.5279 5.98838 20.1064 6.0565 19.6849L6.87395 14.5565L3.33169 10.9385C3.02515 10.6575 2.92297 10.2008 3.05921 9.81445C3.19545 9.39294 3.53605 9.11193 3.94477 9.04168L8.84944 8.30403L11.0293 3.63227C11.1996 3.24588 11.5742 3 12.017 3C12.4258 3 12.8004 3.24588 12.9707 3.63227L15.1846 8.30403Z"/>
</svg>
