<svg width="24" height="24" viewBox="0 0 24 24" fill="none" xmlns="http://www.w3.org/2000/svg">
  <path d="M9.86429 4.38867L9.31786 5.25H14.6821L14.1357 4.38867C14.0321 4.22344 13.8464 4.125 13.65 4.125H10.3464C10.15 4.125 9.96786 4.22344 9.86071 4.38867H9.86429ZM15.1071 3.79453L16.0321 5.25H17.7143H18.8571H19.4286C19.7429 5.25 20 5.50312 20 5.8125C20 6.12188 19.7429 6.375 19.4286 6.375H18.8571V18.1875C18.8571 19.7414 17.5786 21 16 21H8C6.42143 21 5.14286 19.7414 5.14286 18.1875V6.375H4.57143C4.25714 6.375 4 6.12188 4 5.8125C4 5.50312 4.25714 5.25 4.57143 5.25H5.14286H6.28571H7.96786L8.89286 3.79453C9.20714 3.29883 9.75714 3 10.3464 3H13.65C14.2429 3 14.7893 3.29883 15.1036 3.79453H15.1071ZM6.28571 6.375V18.1875C6.28571 19.1191 7.05357 19.875 8 19.875H16C16.9464 19.875 17.7143 19.1191 17.7143 18.1875V6.375H6.28571ZM9.14286 9.1875V17.0625C9.14286 17.3719 8.88571 17.625 8.57143 17.625C8.25714 17.625 8 17.3719 8 17.0625V9.1875C8 8.87813 8.25714 8.625 8.57143 8.625C8.88571 8.625 9.14286 8.87813 9.14286 9.1875ZM12.5714 9.1875V17.0625C12.5714 17.3719 12.3143 17.625 12 17.625C11.6857 17.625 11.4286 17.3719 11.4286 17.0625V9.1875C11.4286 8.87813 11.6857 8.625 12 8.625C12.3143 8.625 12.5714 8.87813 12.5714 9.1875ZM16 9.1875V17.0625C16 17.3719 15.7429 17.625 15.4286 17.625C15.1143 17.625 14.8571 17.3719 14.8571 17.0625V9.1875C14.8571 8.87813 15.1143 8.625 15.4286 8.625C15.7429 8.625 16 8.87813 16 9.1875Z"/>
</svg>
